<?xml version="1.0" encoding="utf-8"?>
<svg xmlns="http://www.w3.org/2000/svg" xmlns:xlink="http://www.w3.org/1999/xlink" style="margin: auto; background: rgba(0, 0, 0, 0) none repeat scroll 0% 0%; display: block; shape-rendering: auto;" width="200px" height="200px" viewBox="0 0 100 100" preserveAspectRatio="xMidYMid">
<g transform="translate(50 50)">
<g>
<animateTransform attributeName="transform" type="rotate" values="0;45" keyTimes="0;1" dur="0.2s" repeatCount="indefinite"></animateTransform><path d="M32.01562118716424 -8 L43.01562118716424 -8 L43.01562118716424 8 L32.01562118716424 8 A33 33 0 0 1 28.295317094835923 16.98160859585116 L28.295317094835923 16.98160859585116 L36.073491687887945 24.75978318890318 L24.75978318890318 36.073491687887945 L16.98160859585116 28.295317094835923 A33 33 0 0 1 8.000000000000004 32.01562118716424 L8.000000000000004 32.01562118716424 L8.000000000000004 43.01562118716424 L-7.999999999999998 43.01562118716424 L-7.999999999999999 32.01562118716424 A33 33 0 0 1 -16.981608595851156 28.295317094835923 L-16.981608595851156 28.295317094835923 L-24.759783188903178 36.073491687887945 L-36.07349168788794 24.759783188903185 L-28.29531709483592 16.981608595851164 A33 33 0 0 1 -32.01562118716424 8.000000000000005 L-32.01562118716424 8.000000000000005 L-43.01562118716424 8.000000000000007 L-43.01562118716424 -7.999999999999996 L-32.01562118716424 -7.999999999999997 A33 33 0 0 1 -28.295317094835923 -16.981608595851156 L-28.295317094835923 -16.981608595851156 L-36.073491687887945 -24.759783188903178 L-24.759783188903185 -36.07349168788794 L-16.981608595851164 -28.29531709483592 A33 33 0 0 1 -8.000000000000007 -32.01562118716424 L-8.000000000000007 -32.01562118716424 L-8.000000000000009 -43.01562118716424 L7.999999999999994 -43.01562118716424 L7.999999999999996 -32.01562118716424 A33 33 0 0 1 16.981608595851153 -28.295317094835926 L16.981608595851153 -28.295317094835926 L24.759783188903175 -36.07349168788795 L36.07349168788794 -24.759783188903192 L28.29531709483592 -16.981608595851167 A33 33 0 0 1 32.01562118716424 -8.000000000000009 M0 -18A18 18 0 1 0 0 18 A18 18 0 1 0 0 -18" fill="#005ce6"></path></g></g>
<!-- [ldio] generated by https://loading.io/ --></svg>