<?xml version="1.0" encoding="UTF-8"?>
<svg xmlns="http://www.w3.org/2000/svg" xmlns:xlink="http://www.w3.org/1999/xlink" width="4824pt" height="2887.18pt" viewBox="0 0 4824 2887.18" version="1.1">
<defs>
<clipPath id="clip1">
  <path d="M 2535 2694 L 2650 2694 L 2650 2887.179688 L 2535 2887.179688 Z M 2535 2694 "/>
</clipPath>
</defs>
<g id="surface1">
<path style=" stroke:none;fill-rule:evenodd;fill:rgb(36.499023%,73.699951%,39.99939%);fill-opacity:1;" d="M 274.8125 2448.269531 L 120.992188 2448.269531 C 120.992188 2448.269531 146.863281 2123.058594 480.175781 2123.058594 C 813.839844 2123.058594 856.675781 2448.269531 856.675781 2448.269531 L 711.308594 2448.269531 C 711.308594 2448.269531 651.554688 2268.449219 488.871094 2268.449219 C 326.289063 2268.449219 274.8125 2448.269531 274.8125 2448.269531 "/>
<path style=" stroke:none;fill-rule:evenodd;fill:rgb(21.199036%,74.499512%,73.699951%);fill-opacity:1;" d="M 699.367188 2518.488281 L 852.953125 2518.488281 C 852.953125 2518.488281 827.230469 2843.738281 493.648438 2843.738281 C 160.253906 2843.738281 117.199219 2518.488281 117.199219 2518.488281 L 262.785156 2518.488281 C 262.785156 2518.488281 322.484375 2698.351563 485.0625 2698.351563 C 647.871094 2698.351563 699.367188 2518.488281 699.367188 2518.488281 "/>
<path style=" stroke:none;fill-rule:evenodd;fill:rgb(21.199036%,74.499512%,73.699951%);fill-opacity:1;" d="M 954.257813 2148.730469 L 1099.871094 2148.730469 L 1099.871094 2832.761719 L 954.257813 2832.761719 L 954.257813 2148.730469 "/>
<path style=" stroke:none;fill-rule:evenodd;fill:rgb(21.199036%,74.499512%,73.699951%);fill-opacity:1;" d="M 1635.558594 2151.199219 L 1781.039063 2151.199219 L 1781.039063 2835.398438 L 1635.558594 2835.398438 L 1635.558594 2151.199219 "/>
<path style=" stroke:none;fill-rule:evenodd;fill:rgb(36.499023%,73.699951%,39.99939%);fill-opacity:1;" d="M 1159.519531 2148.730469 L 1518.691406 2148.730469 L 1518.691406 2294.320313 L 1159.519531 2294.320313 L 1159.519531 2148.730469 "/>
<path style=" stroke:none;fill-rule:evenodd;fill:rgb(36.499023%,73.699951%,39.99939%);fill-opacity:1;" d="M 1155.800781 2412.058594 L 1515.121094 2412.058594 L 1515.121094 2557.460938 L 1155.800781 2557.460938 L 1155.800781 2412.058594 "/>
<path style=" stroke:none;fill-rule:evenodd;fill:rgb(36.499023%,73.699951%,39.99939%);fill-opacity:1;" d="M 1147.148438 2685.820313 L 1506.480469 2685.820313 L 1506.480469 2831.308594 L 1147.148438 2831.308594 L 1147.148438 2685.820313 "/>
<path style=" stroke:none;fill-rule:nonzero;fill:rgb(36.499023%,73.699951%,39.99939%);fill-opacity:1;" d="M 844.0625 464.25 L 844.0625 188.46875 C 844.0625 169.078125 859.925781 153.21875 879.316406 153.21875 L 1015.789063 153.21875 L 1015.789063 0 C 454.8125 0 0 454.671875 0 1015.621094 C 0 1576.558594 454.8125 2031.339844 1015.789063 2031.339844 L 1015.789063 1402.679688 L 712.382813 1402.949219 C 689.519531 1402.949219 670.96875 1421.480469 670.96875 1444.359375 L 671.207031 1672.390625 C 671.207031 1695.25 652.667969 1713.808594 629.792969 1713.808594 L 452.414063 1713.808594 C 429.546875 1713.808594 410.996094 1695.25 410.996094 1672.390625 L 410.894531 1246.890625 C 410.894531 1188.46875 458.242188 1141.179688 516.609375 1141.179688 L 751.460938 1141.28125 C 774.339844 1141.28125 792.878906 1122.71875 792.878906 1099.859375 L 793.09375 921.429688 C 793.09375 898.550781 774.550781 880.019531 751.675781 880.019531 L 510.132813 880.140625 C 451.765625 880.140625 404.414063 832.789063 404.414063 774.449219 L 404.414063 462.898438 C 404.414063 438.011719 422.019531 417.238281 445.425781 412.328125 L 615.230469 371.878906 C 618.503906 371.140625 621.917969 370.75 625.417969 370.75 C 650.996094 370.75 671.734375 391.480469 671.734375 417.078125 L 671.753906 581.230469 C 671.753906 602.75 689.214844 620.210938 710.730469 620.210938 L 1015.789063 620.25 L 1015.789063 499.25 L 879.316406 499.449219 C 859.925781 499.46875 844.0625 483.640625 844.0625 464.25 "/>
<path style=" stroke:none;fill-rule:nonzero;fill:rgb(21.199036%,74.499512%,73.699951%);fill-opacity:1;" d="M 1187.289063 464.25 L 1187.289063 188.46875 C 1187.289063 169.078125 1171.429688 153.21875 1152.03125 153.21875 L 1015.558594 153.21875 L 1015.558594 0 C 1576.539063 0 2031.351563 454.671875 2031.351563 1015.621094 C 2031.351563 1576.558594 1576.539063 2031.339844 1015.558594 2031.339844 L 1015.558594 1402.679688 L 1318.96875 1402.949219 C 1341.828125 1402.949219 1360.378906 1421.480469 1360.378906 1444.359375 L 1360.140625 1672.390625 C 1360.140625 1695.25 1378.691406 1713.808594 1401.558594 1713.808594 L 1578.941406 1713.808594 C 1601.800781 1713.808594 1620.359375 1695.25 1620.359375 1672.390625 L 1620.460938 1246.890625 C 1620.460938 1188.46875 1573.109375 1141.179688 1514.738281 1141.179688 L 1279.890625 1141.28125 C 1257.011719 1141.28125 1238.46875 1122.71875 1238.46875 1099.859375 L 1238.261719 921.429688 C 1238.261719 898.550781 1256.800781 880.019531 1279.679688 880.019531 L 1521.21875 880.140625 C 1579.578125 880.140625 1626.929688 832.789063 1626.929688 774.449219 L 1626.929688 462.898438 C 1626.929688 438.011719 1609.328125 417.238281 1585.921875 412.328125 L 1416.121094 371.878906 C 1412.839844 371.140625 1409.429688 370.75 1405.929688 370.75 C 1380.351563 370.75 1359.609375 391.480469 1359.609375 417.078125 L 1359.589844 581.230469 C 1359.589844 602.75 1342.128906 620.210938 1320.621094 620.210938 L 1015.558594 620.25 L 1015.558594 499.25 L 1152.03125 499.449219 C 1171.429688 499.46875 1187.289063 483.640625 1187.289063 464.25 "/>
<path style=" stroke:none;fill-rule:nonzero;fill:rgb(13.699341%,12.199402%,12.5%);fill-opacity:1;" d="M 2568.378906 557.820313 C 2568.378906 636.101563 2598.878906 669.929688 2634.71875 669.929688 C 2670.539063 669.929688 2701.03125 636.101563 2701.03125 557.820313 C 2701.03125 479.550781 2670.539063 445.71875 2634.71875 445.71875 C 2598.878906 445.71875 2568.378906 479.550781 2568.378906 557.820313 Z M 2728.238281 557.820313 C 2728.238281 642.730469 2688.441406 692.140625 2634.71875 692.140625 C 2580.988281 692.140625 2541.191406 642.730469 2541.191406 557.820313 C 2541.191406 472.921875 2580.988281 423.511719 2634.71875 423.511719 C 2688.441406 423.511719 2728.238281 472.921875 2728.238281 557.820313 "/>
<path style=" stroke:none;fill-rule:nonzero;fill:rgb(13.699341%,12.199402%,12.5%);fill-opacity:1;" d="M 2789.601563 543.238281 L 2790.261719 543.238281 C 2800.550781 521.351563 2813.808594 501.109375 2840.988281 501.109375 L 2850.949219 501.109375 L 2850.949219 524.660156 C 2817.128906 520.019531 2799.539063 556.488281 2789.601563 583.039063 L 2789.601563 686.839844 L 2763.738281 686.839844 L 2763.738281 503.761719 L 2789.601563 503.761719 L 2789.601563 543.238281 "/>
<path style=" stroke:none;fill-rule:nonzero;fill:rgb(13.699341%,12.199402%,12.5%);fill-opacity:1;" d="M 2930.890625 518.019531 C 2906.019531 518.019531 2890.421875 538.921875 2890.421875 562.46875 C 2890.421875 585.351563 2904.671875 605.578125 2928.558594 605.578125 C 2955.101563 605.578125 2969.699219 587.351563 2969.699219 562.128906 C 2969.699219 538.25 2956.761719 518.019531 2930.890625 518.019531 Z M 2913.300781 675.558594 C 2899.371094 678.21875 2878.800781 686.5 2878.800781 703.101563 C 2878.800781 728.300781 2915.96875 729.621094 2933.550781 729.621094 C 2952.128906 729.621094 2984.960938 725.980469 2984.960938 700.769531 C 2984.960938 681.539063 2954.429688 679.210938 2940.511719 678.21875 Z M 3011.480469 520.351563 L 3001.871094 520.351563 C 2994.558594 520.351563 2989.921875 520.671875 2983.300781 524.328125 C 2990.910156 535.601563 2994.558594 548.539063 2994.558594 562.128906 C 2994.558594 597.628906 2968.359375 625.148438 2932.871094 625.148438 C 2922.261719 625.148438 2912.980469 623.171875 2903.359375 619.511719 C 2897.710938 624.160156 2887.769531 630.128906 2887.769531 639.078125 C 2887.769531 662.300781 3009.820313 633.121094 3009.820313 702.429688 C 3009.820313 716.03125 3005.5 750.191406 2932.199219 750.191406 C 2872.53125 750.191406 2853.949219 726.96875 2853.949219 704.421875 C 2853.949219 685.511719 2870.53125 675.230469 2885.769531 668.601563 C 2874.839844 664.289063 2862.890625 656.320313 2862.890625 643.058594 C 2862.890625 626.808594 2875.480469 621.839844 2885.769531 609.558594 C 2872.53125 593.96875 2865.539063 583.039063 2865.539063 561.46875 C 2865.539063 524.328125 2893.421875 498.460938 2930.21875 498.460938 C 2944.820313 498.460938 2958.078125 502.769531 2970.019531 511.390625 C 2981.960938 502.429688 2995.890625 495.808594 3011.480469 497.46875 L 3011.480469 520.351563 "/>
<path style=" stroke:none;fill-rule:nonzero;fill:rgb(13.699341%,12.199402%,12.5%);fill-opacity:1;" d="M 3134.53125 587.011719 C 3109.980469 594.308594 3065.199219 604.261719 3065.199219 637.089844 C 3065.199219 652.339844 3077.148438 667.601563 3092.730469 667.601563 C 3113.300781 667.601563 3132.210938 653.339844 3144.800781 637.75 L 3144.800781 584.019531 Z M 3147.46875 686.839844 L 3144.800781 663.621094 C 3129.898438 678.21875 3113.300781 692.140625 3091.761719 692.140625 C 3063.539063 692.140625 3040.988281 668.601563 3040.988281 639.738281 C 3040.988281 587.351563 3096.050781 576.070313 3136.519531 565.121094 L 3144.800781 562.800781 L 3144.800781 552.519531 C 3144.800781 531.621094 3130.539063 520.351563 3109.980469 520.351563 C 3089.761719 520.351563 3075.828125 533.609375 3065.199219 549.199219 L 3046.988281 535.601563 C 3062.230469 513.710938 3082.128906 498.460938 3109.980469 498.460938 C 3134.859375 498.460938 3170.671875 513.710938 3170.671875 555.5 L 3170.671875 646.371094 C 3171.019531 659.980469 3170.351563 673.898438 3175.648438 686.839844 L 3147.46875 686.839844 "/>
<path style=" stroke:none;fill-rule:nonzero;fill:rgb(13.699341%,12.199402%,12.5%);fill-opacity:1;" d="M 3237.019531 686.839844 L 3211.160156 686.839844 L 3211.160156 503.761719 L 3237.019531 503.761719 L 3237.019531 522.671875 C 3252.269531 510.398438 3266.539063 498.460938 3287.429688 498.460938 C 3313.300781 498.460938 3334.191406 512.71875 3334.191406 560.480469 L 3334.191406 686.839844 L 3308.320313 686.839844 L 3308.320313 567.109375 C 3308.320313 547.871094 3311.640625 519.679688 3284.109375 519.679688 C 3268.199219 519.679688 3247.308594 535.269531 3237.019531 547.550781 L 3237.019531 686.839844 "/>
<path style=" stroke:none;fill-rule:nonzero;fill:rgb(13.699341%,12.199402%,12.5%);fill-opacity:1;" d="M 3400.511719 686.839844 L 3374.640625 686.839844 L 3374.640625 503.761719 L 3400.511719 503.761719 Z M 3400.511719 457.328125 L 3374.640625 457.328125 L 3374.640625 428.808594 L 3400.511719 428.808594 L 3400.511719 457.328125 "/>
<path style=" stroke:none;fill-rule:nonzero;fill:rgb(13.699341%,12.199402%,12.5%);fill-opacity:1;" d="M 3559.378906 520.019531 L 3467.839844 664.949219 L 3559.378906 664.949219 L 3559.378906 686.839844 L 3436.339844 686.839844 L 3436.339844 667.929688 L 3526.878906 525.660156 L 3444.640625 525.660156 L 3444.640625 503.761719 L 3559.378906 503.761719 L 3559.378906 520.019531 "/>
<path style=" stroke:none;fill-rule:nonzero;fill:rgb(13.699341%,12.199402%,12.5%);fill-opacity:1;" d="M 3684.089844 587.011719 C 3659.539063 594.308594 3614.761719 604.261719 3614.761719 637.089844 C 3614.761719 652.339844 3626.710938 667.601563 3642.289063 667.601563 C 3662.859375 667.601563 3681.769531 653.339844 3694.359375 637.75 L 3694.359375 584.019531 Z M 3697.03125 686.839844 L 3694.359375 663.621094 C 3679.449219 678.21875 3662.859375 692.140625 3641.320313 692.140625 C 3613.101563 692.140625 3590.550781 668.601563 3590.550781 639.738281 C 3590.550781 587.351563 3645.609375 576.070313 3686.078125 565.121094 L 3694.359375 562.800781 L 3694.359375 552.519531 C 3694.359375 531.621094 3680.101563 520.351563 3659.539063 520.351563 C 3639.320313 520.351563 3625.390625 533.609375 3614.761719 549.199219 L 3596.550781 535.601563 C 3611.789063 513.710938 3631.691406 498.460938 3659.539063 498.460938 C 3684.421875 498.460938 3720.230469 513.710938 3720.230469 555.5 L 3720.230469 646.371094 C 3720.578125 659.980469 3719.898438 673.898438 3725.210938 686.839844 L 3697.03125 686.839844 "/>
<path style=" stroke:none;fill-rule:nonzero;fill:rgb(13.699341%,12.199402%,12.5%);fill-opacity:1;" d="M 3866.179688 554.828125 C 3859.871094 537.921875 3849.921875 519.679688 3829.359375 520.351563 C 3789.558594 520.351563 3781.929688 564.128906 3781.929688 595.300781 C 3781.929688 626.46875 3789.558594 670.261719 3829.359375 670.261719 C 3851.570313 669.261719 3864.199219 651.351563 3872.140625 633.441406 L 3893.019531 642.730469 C 3882.410156 670.589844 3858.878906 692.140625 3829.359375 692.140625 C 3788.570313 692.140625 3756.058594 663.960938 3756.058594 595.300781 C 3756.058594 526.648438 3788.570313 498.460938 3829.359375 498.460938 C 3859.539063 498.460938 3878.121094 517.371094 3888.070313 544.890625 L 3866.179688 554.828125 "/>
<path style=" stroke:none;fill-rule:nonzero;fill:rgb(13.699341%,12.199402%,12.5%);fill-opacity:1;" d="M 3954.730469 686.839844 L 3928.859375 686.839844 L 3928.859375 503.761719 L 3954.730469 503.761719 Z M 3954.730469 457.328125 L 3928.859375 457.328125 L 3928.859375 428.808594 L 3954.730469 428.808594 L 3954.730469 457.328125 "/>
<path style=" stroke:none;fill-rule:nonzero;fill:rgb(13.699341%,12.199402%,12.5%);fill-opacity:1;" d="M 4072.78125 428.808594 L 4103.308594 428.808594 L 4068.148438 476.570313 L 4049.578125 476.570313 Z M 4111.261719 595.300781 C 4111.261719 564.128906 4103.628906 520.351563 4063.828125 520.351563 C 4024.039063 520.351563 4016.398438 564.128906 4016.398438 595.300781 C 4016.398438 626.46875 4024.039063 670.261719 4063.828125 670.261719 C 4103.628906 670.261719 4111.261719 626.46875 4111.261719 595.300781 Z M 3990.53125 595.300781 C 3990.53125 526.648438 4023.039063 498.460938 4063.828125 498.460938 C 4104.621094 498.460938 4137.140625 526.648438 4137.140625 595.300781 C 4137.140625 663.960938 4104.621094 692.140625 4063.828125 692.140625 C 4023.039063 692.140625 3990.53125 663.960938 3990.53125 595.300781 "/>
<path style=" stroke:none;fill-rule:nonzero;fill:rgb(13.699341%,12.199402%,12.5%);fill-opacity:1;" d="M 4198.160156 686.839844 L 4172.289063 686.839844 L 4172.289063 503.761719 L 4198.160156 503.761719 L 4198.160156 522.671875 C 4213.410156 510.398438 4227.679688 498.460938 4248.570313 498.460938 C 4274.441406 498.460938 4295.328125 512.71875 4295.328125 560.480469 L 4295.328125 686.839844 L 4269.460938 686.839844 L 4269.460938 567.109375 C 4269.460938 547.871094 4272.78125 519.679688 4245.25 519.679688 C 4229.339844 519.679688 4208.449219 535.269531 4198.160156 547.550781 L 4198.160156 686.839844 "/>
<path style=" stroke:none;fill-rule:nonzero;fill:rgb(13.699341%,12.199402%,12.5%);fill-opacity:1;" d="M 2655.28125 934.011719 C 2647.308594 918.089844 2632.410156 904.488281 2612.488281 904.488281 C 2576.328125 904.488281 2568.71875 954.238281 2568.71875 981.769531 C 2568.71875 1035.488281 2594.25 1053.078125 2612.160156 1053.078125 C 2630.410156 1053.078125 2647.988281 1034.5 2655.28125 1018.921875 Z M 2655.28125 812.300781 L 2681.148438 812.300781 L 2681.148438 1070.320313 L 2655.28125 1070.320313 L 2655.28125 1049.429688 C 2643.011719 1064.691406 2628.738281 1075.628906 2608.519531 1075.628906 C 2583.640625 1075.628906 2541.519531 1052.738281 2541.519531 982.441406 C 2541.519531 910.46875 2578 881.941406 2609.511719 881.941406 C 2627.078125 881.941406 2643.339844 893.550781 2655.28125 906.148438 L 2655.28125 812.300781 "/>
<path style=" stroke:none;fill-rule:nonzero;fill:rgb(13.699341%,12.199402%,12.5%);fill-opacity:1;" d="M 2827.410156 961.199219 C 2828.078125 937.660156 2815.46875 903.839844 2788.28125 903.839844 C 2759.089844 903.839844 2745.160156 935.339844 2744.839844 961.199219 Z M 2744.140625 983.101563 C 2744.140625 1035.488281 2766.371094 1053.738281 2792.910156 1053.738281 C 2812.171875 1053.738281 2828.398438 1038.160156 2837.691406 1022.238281 L 2856.261719 1034.5 C 2846.320313 1058.058594 2821.761719 1075.628906 2790.261719 1075.628906 C 2749.46875 1075.628906 2716.960938 1047.441406 2716.960938 978.789063 C 2716.960938 910.128906 2749.46875 881.941406 2790.261719 881.941406 C 2843 881.941406 2858.238281 938.320313 2854.601563 983.101563 L 2744.140625 983.101563 "/>
<path style=" stroke:none;fill-rule:nonzero;fill:rgb(13.699341%,12.199402%,12.5%);fill-opacity:1;" d="M 3127.558594 835.519531 L 3014.800781 835.519531 L 3014.800781 923.398438 L 3095.390625 923.398438 L 3095.390625 946.621094 L 3014.800781 946.621094 L 3014.800781 1047.101563 L 3135.179688 1047.101563 L 3135.179688 1070.320313 L 2987.589844 1070.320313 L 2987.589844 812.300781 L 3127.558594 812.300781 L 3127.558594 835.519531 "/>
<path style=" stroke:none;fill-rule:nonzero;fill:rgb(13.699341%,12.199402%,12.5%);fill-opacity:1;" d="M 3274.148438 928.039063 C 3263.871094 912.78125 3251.601563 903.839844 3232.371094 903.839844 C 3215.449219 903.839844 3199.539063 912.460938 3199.539063 931.03125 C 3199.539063 975.800781 3296.039063 956.238281 3296.039063 1017.921875 C 3296.039063 1053.738281 3270.511719 1075.628906 3236.011719 1075.628906 C 3206.5 1075.628906 3182.621094 1062.691406 3167.671875 1037.148438 L 3188.238281 1024.21875 C 3198.199219 1043.128906 3214.109375 1053.738281 3236.011719 1053.738281 C 3254.921875 1053.738281 3271.820313 1043.460938 3271.820313 1022.558594 C 3271.820313 976.46875 3175.320313 998.351563 3175.320313 932.679688 C 3175.320313 901.191406 3201.199219 881.941406 3231.359375 881.941406 C 3256.910156 881.941406 3278.121094 892.558594 3292.390625 913.78125 L 3274.148438 928.039063 "/>
<path style=" stroke:none;fill-rule:nonzero;fill:rgb(13.699341%,12.199402%,12.5%);fill-opacity:1;" d="M 3367.679688 887.25 L 3409.128906 887.25 L 3409.128906 909.140625 L 3367.679688 909.140625 L 3367.679688 1024.21875 C 3367.679688 1042.140625 3367.351563 1053.738281 3388.558594 1053.738281 C 3395.871094 1053.738281 3402.839844 1053.078125 3409.128906 1051.421875 L 3409.128906 1070.320313 C 3400.828125 1073.308594 3392.210938 1075.628906 3383.261719 1075.628906 C 3339.5 1075.628906 3341.800781 1046.121094 3341.800781 1012.609375 L 3341.800781 909.140625 L 3313.949219 909.140625 L 3313.949219 887.25 L 3341.800781 887.25 L 3341.800781 827.878906 L 3367.679688 827.878906 L 3367.679688 887.25 "/>
<path style=" stroke:none;fill-rule:nonzero;fill:rgb(13.699341%,12.199402%,12.5%);fill-opacity:1;" d="M 3520.921875 970.5 C 3496.378906 977.789063 3451.601563 987.738281 3451.601563 1020.578125 C 3451.601563 1035.828125 3463.550781 1051.078125 3479.128906 1051.078125 C 3499.679688 1051.078125 3518.589844 1036.820313 3531.199219 1021.238281 L 3531.199219 967.511719 Z M 3533.828125 1070.320313 L 3531.199219 1047.101563 C 3516.261719 1061.699219 3499.679688 1075.628906 3478.121094 1075.628906 C 3449.941406 1075.628906 3427.390625 1052.078125 3427.390625 1023.230469 C 3427.390625 970.828125 3482.429688 959.550781 3522.898438 948.601563 L 3531.199219 946.289063 L 3531.199219 936 C 3531.199219 915.109375 3516.929688 903.839844 3496.378906 903.839844 C 3476.140625 903.839844 3462.210938 917.101563 3451.601563 932.679688 L 3433.351563 919.089844 C 3448.609375 897.199219 3468.5 881.941406 3496.378906 881.941406 C 3521.238281 881.941406 3557.070313 897.199219 3557.070313 938.988281 L 3557.070313 1029.859375 C 3557.390625 1043.460938 3556.730469 1057.390625 3562.050781 1070.320313 L 3533.828125 1070.320313 "/>
<path style=" stroke:none;fill-rule:nonzero;fill:rgb(13.699341%,12.199402%,12.5%);fill-opacity:1;" d="M 3706.640625 934.011719 C 3698.691406 918.089844 3683.75 904.488281 3663.871094 904.488281 C 3627.71875 904.488281 3620.058594 954.238281 3620.058594 981.769531 C 3620.058594 1035.488281 3645.609375 1053.078125 3663.519531 1053.078125 C 3681.769531 1053.078125 3699.339844 1034.5 3706.640625 1018.921875 Z M 3706.640625 812.300781 L 3732.488281 812.300781 L 3732.488281 1070.320313 L 3706.640625 1070.320313 L 3706.640625 1049.429688 C 3694.359375 1064.691406 3680.101563 1075.628906 3659.859375 1075.628906 C 3635 1075.628906 3592.878906 1052.738281 3592.878906 982.441406 C 3592.878906 910.46875 3629.378906 881.941406 3660.871094 881.941406 C 3678.441406 881.941406 3694.699219 893.550781 3706.640625 906.148438 L 3706.640625 812.300781 "/>
<path style=" stroke:none;fill-rule:nonzero;fill:rgb(13.699341%,12.199402%,12.5%);fill-opacity:1;" d="M 3889.058594 978.789063 C 3889.058594 947.609375 3881.421875 903.839844 3841.621094 903.839844 C 3801.820313 903.839844 3794.199219 947.609375 3794.199219 978.789063 C 3794.199219 1009.960938 3801.820313 1053.738281 3841.621094 1053.738281 C 3881.421875 1053.738281 3889.058594 1009.960938 3889.058594 978.789063 Z M 3768.328125 978.789063 C 3768.328125 910.128906 3800.828125 881.941406 3841.621094 881.941406 C 3882.410156 881.941406 3914.929688 910.128906 3914.929688 978.789063 C 3914.929688 1047.441406 3882.410156 1075.628906 3841.621094 1075.628906 C 3800.828125 1075.628906 3768.328125 1047.441406 3768.328125 978.789063 "/>
<path style=" stroke:none;fill-rule:nonzero;fill:rgb(13.699341%,12.199402%,12.5%);fill-opacity:1;" d="M 4052.210938 928.039063 C 4041.949219 912.78125 4029.660156 903.839844 4010.441406 903.839844 C 3993.53125 903.839844 3977.601563 912.460938 3977.601563 931.03125 C 3977.601563 975.800781 4074.121094 956.238281 4074.121094 1017.921875 C 4074.121094 1053.738281 4048.570313 1075.628906 4014.078125 1075.628906 C 3984.558594 1075.628906 3960.691406 1062.691406 3945.78125 1037.148438 L 3966.339844 1024.21875 C 3976.28125 1043.128906 3992.210938 1053.738281 4014.078125 1053.738281 C 4032.980469 1053.738281 4049.898438 1043.460938 4049.898438 1022.558594 C 4049.898438 976.46875 3953.378906 998.351563 3953.378906 932.679688 C 3953.378906 901.191406 3979.261719 881.941406 4009.441406 881.941406 C 4034.988281 881.941406 4056.21875 892.558594 4070.46875 913.78125 L 4052.210938 928.039063 "/>
<path style=" stroke:none;fill-rule:nonzero;fill:rgb(13.699341%,12.199402%,12.5%);fill-opacity:1;" d="M 2574.019531 1453.808594 L 2546.820313 1453.808594 L 2546.820313 1195.78125 L 2574.019531 1195.78125 L 2574.019531 1453.808594 "/>
<path style=" stroke:none;fill-rule:nonzero;fill:rgb(13.699341%,12.199402%,12.5%);fill-opacity:1;" d="M 2641.011719 1402.398438 C 2648.320313 1417.988281 2665.890625 1436.558594 2684.128906 1436.558594 C 2702.039063 1436.558594 2727.589844 1418.980469 2727.589844 1365.261719 C 2727.589844 1337.730469 2719.941406 1287.980469 2683.78125 1287.980469 C 2663.910156 1287.980469 2648.96875 1301.578125 2641.011719 1317.488281 Z M 2641.011719 1453.808594 L 2615.160156 1453.808594 L 2615.160156 1195.78125 L 2641.011719 1195.78125 L 2641.011719 1289.628906 C 2652.949219 1277.039063 2669.210938 1265.429688 2686.78125 1265.429688 C 2718.28125 1265.429688 2754.769531 1293.949219 2754.769531 1365.921875 C 2754.769531 1436.230469 2712.648438 1459.109375 2687.789063 1459.109375 C 2667.550781 1459.109375 2653.300781 1448.171875 2641.011719 1432.921875 L 2641.011719 1453.808594 "/>
<path style=" stroke:none;fill-rule:nonzero;fill:rgb(13.699341%,12.199402%,12.5%);fill-opacity:1;" d="M 2896.050781 1344.691406 C 2896.71875 1321.140625 2884.109375 1287.320313 2856.921875 1287.320313 C 2827.75 1287.320313 2813.828125 1318.828125 2813.480469 1344.691406 Z M 2812.808594 1366.578125 C 2812.808594 1418.980469 2835.039063 1437.230469 2861.558594 1437.230469 C 2880.808594 1437.230469 2897.058594 1421.640625 2906.328125 1405.71875 L 2924.921875 1417.988281 C 2914.960938 1441.539063 2890.421875 1459.109375 2858.929688 1459.109375 C 2818.121094 1459.109375 2785.609375 1430.921875 2785.609375 1362.269531 C 2785.609375 1293.609375 2818.121094 1265.429688 2858.929688 1265.429688 C 2911.640625 1265.429688 2926.898438 1321.800781 2923.261719 1366.578125 L 2812.808594 1366.578125 "/>
<path style=" stroke:none;fill-rule:nonzero;fill:rgb(13.699341%,12.199402%,12.5%);fill-opacity:1;" d="M 2986.601563 1310.199219 L 2987.269531 1310.199219 C 2997.550781 1288.308594 3010.808594 1268.078125 3038 1268.078125 L 3047.960938 1268.078125 L 3047.960938 1291.628906 C 3014.128906 1286.980469 2996.539063 1323.460938 2986.601563 1350 L 2986.601563 1453.808594 L 2960.75 1453.808594 L 2960.75 1270.730469 L 2986.601563 1270.730469 L 2986.601563 1310.199219 "/>
<path style=" stroke:none;fill-rule:nonzero;fill:rgb(13.699341%,12.199402%,12.5%);fill-opacity:1;" d="M 3183.949219 1362.269531 C 3183.949219 1331.101563 3176.320313 1287.320313 3136.519531 1287.320313 C 3096.71875 1287.320313 3089.089844 1331.101563 3089.089844 1362.269531 C 3089.089844 1393.441406 3096.71875 1437.230469 3136.519531 1437.230469 C 3176.320313 1437.230469 3183.949219 1393.441406 3183.949219 1362.269531 Z M 3063.21875 1362.269531 C 3063.21875 1293.609375 3095.730469 1265.429688 3136.519531 1265.429688 C 3177.308594 1265.429688 3209.820313 1293.609375 3209.820313 1362.269531 C 3209.820313 1430.921875 3177.308594 1459.109375 3136.519531 1459.109375 C 3095.730469 1459.109375 3063.21875 1430.921875 3063.21875 1362.269531 "/>
<path style=" stroke:none;fill-rule:nonzero;fill:rgb(13.699341%,12.199402%,12.5%);fill-opacity:1;" d="M 3334.191406 1353.980469 C 3309.660156 1361.28125 3264.878906 1371.230469 3264.878906 1404.058594 C 3264.878906 1419.308594 3276.820313 1434.558594 3292.410156 1434.558594 C 3312.960938 1434.558594 3331.859375 1420.308594 3344.46875 1404.71875 L 3344.46875 1350.988281 Z M 3347.109375 1453.808594 L 3344.46875 1430.589844 C 3329.539063 1445.179688 3312.960938 1459.109375 3291.398438 1459.109375 C 3263.21875 1459.109375 3240.671875 1435.570313 3240.671875 1406.710938 C 3240.671875 1354.308594 3295.710938 1343.039063 3336.171875 1332.089844 L 3344.46875 1329.769531 L 3344.46875 1319.480469 C 3344.46875 1298.601563 3330.199219 1287.320313 3309.660156 1287.320313 C 3289.410156 1287.320313 3275.488281 1300.578125 3264.878906 1316.160156 L 3246.621094 1302.570313 C 3261.878906 1280.679688 3281.789063 1265.429688 3309.660156 1265.429688 C 3334.511719 1265.429688 3370.351563 1280.679688 3370.351563 1322.46875 L 3370.351563 1413.339844 C 3370.671875 1426.941406 3370 1440.871094 3375.320313 1453.808594 L 3347.109375 1453.808594 "/>
<path style=" stroke:none;fill-rule:nonzero;fill:rgb(13.699341%,12.199402%,12.5%);fill-opacity:1;" d="M 3436.660156 1453.808594 L 3410.789063 1453.808594 L 3410.789063 1270.730469 L 3436.660156 1270.730469 L 3436.660156 1286.980469 C 3452.589844 1274.050781 3466.179688 1265.429688 3487.410156 1265.429688 C 3506.988281 1265.429688 3521.910156 1273.71875 3531.519531 1290.308594 C 3548.449219 1276.699219 3564.679688 1265.761719 3587.578125 1265.429688 C 3613.449219 1265.429688 3634.328125 1279.691406 3634.328125 1327.449219 L 3634.328125 1453.808594 L 3608.480469 1453.808594 L 3608.480469 1334.078125 C 3608.480469 1314.839844 3611.789063 1286.648438 3584.25 1286.648438 C 3565.371094 1286.320313 3546.460938 1299.25 3535.511719 1310.859375 L 3535.511719 1453.808594 L 3509.640625 1453.808594 L 3509.640625 1334.078125 C 3509.640625 1314.839844 3512.941406 1286.648438 3485.429688 1286.648438 C 3463.199219 1287.320313 3449.941406 1298.929688 3436.660156 1310.859375 L 3436.660156 1453.808594 "/>
<path style=" stroke:none;fill-rule:nonzero;fill:rgb(13.699341%,12.199402%,12.5%);fill-opacity:1;" d="M 3779.941406 1344.691406 C 3780.589844 1321.140625 3768 1287.320313 3740.800781 1287.320313 C 3711.621094 1287.320313 3697.699219 1318.828125 3697.351563 1344.691406 Z M 3696.710938 1366.578125 C 3696.710938 1418.980469 3718.929688 1437.230469 3745.449219 1437.230469 C 3764.679688 1437.230469 3780.941406 1421.640625 3790.21875 1405.71875 L 3808.808594 1417.988281 C 3798.851563 1441.539063 3774.320313 1459.109375 3742.800781 1459.109375 C 3702.011719 1459.109375 3669.5 1430.921875 3669.5 1362.269531 C 3669.5 1293.609375 3702.011719 1265.429688 3742.800781 1265.429688 C 3795.53125 1265.429688 3810.789063 1321.800781 3807.148438 1366.578125 L 3696.710938 1366.578125 "/>
<path style=" stroke:none;fill-rule:nonzero;fill:rgb(13.699341%,12.199402%,12.5%);fill-opacity:1;" d="M 3870.46875 1310.199219 L 3871.140625 1310.199219 C 3881.421875 1288.308594 3894.679688 1268.078125 3921.890625 1268.078125 L 3931.828125 1268.078125 L 3931.828125 1291.628906 C 3898 1286.980469 3880.429688 1323.460938 3870.46875 1350 L 3870.46875 1453.808594 L 3844.601563 1453.808594 L 3844.601563 1270.730469 L 3870.46875 1270.730469 L 3870.46875 1310.199219 "/>
<path style=" stroke:none;fill-rule:nonzero;fill:rgb(13.699341%,12.199402%,12.5%);fill-opacity:1;" d="M 3986.21875 1453.808594 L 3960.351563 1453.808594 L 3960.351563 1270.730469 L 3986.21875 1270.730469 Z M 3986.21875 1224.308594 L 3960.351563 1224.308594 L 3960.351563 1195.78125 L 3986.21875 1195.78125 L 3986.21875 1224.308594 "/>
<path style=" stroke:none;fill-rule:nonzero;fill:rgb(13.699341%,12.199402%,12.5%);fill-opacity:1;" d="M 4132.171875 1321.800781 C 4125.859375 1304.890625 4115.921875 1286.648438 4095.351563 1287.320313 C 4055.558594 1287.320313 4047.921875 1331.101563 4047.921875 1362.269531 C 4047.921875 1393.441406 4055.558594 1437.230469 4095.351563 1437.230469 C 4117.558594 1436.230469 4130.191406 1418.320313 4138.128906 1400.398438 L 4159.019531 1409.699219 C 4148.410156 1437.550781 4124.871094 1459.109375 4095.351563 1459.109375 C 4054.558594 1459.109375 4022.050781 1430.921875 4022.050781 1362.269531 C 4022.050781 1293.609375 4054.558594 1265.429688 4095.351563 1265.429688 C 4125.539063 1265.429688 4144.121094 1284.328125 4154.058594 1311.851563 L 4132.171875 1321.800781 "/>
<path style=" stroke:none;fill-rule:nonzero;fill:rgb(13.699341%,12.199402%,12.5%);fill-opacity:1;" d="M 4283.390625 1353.980469 C 4258.859375 1361.28125 4214.078125 1371.230469 4214.078125 1404.058594 C 4214.078125 1419.308594 4226.019531 1434.558594 4241.609375 1434.558594 C 4262.179688 1434.558594 4281.078125 1420.308594 4293.671875 1404.71875 L 4293.671875 1350.988281 Z M 4296.320313 1453.808594 L 4293.671875 1430.589844 C 4278.75 1445.179688 4262.179688 1459.109375 4240.601563 1459.109375 C 4212.421875 1459.109375 4189.859375 1435.570313 4189.859375 1406.710938 C 4189.859375 1354.308594 4244.929688 1343.039063 4285.378906 1332.089844 L 4293.671875 1329.769531 L 4293.671875 1319.480469 C 4293.671875 1298.601563 4279.421875 1287.320313 4258.859375 1287.320313 C 4238.609375 1287.320313 4224.679688 1300.578125 4214.078125 1316.160156 L 4195.839844 1302.570313 C 4211.078125 1280.679688 4231 1265.429688 4258.859375 1265.429688 C 4283.710938 1265.429688 4319.539063 1280.679688 4319.539063 1322.46875 L 4319.539063 1413.339844 C 4319.871094 1426.941406 4319.21875 1440.871094 4324.519531 1453.808594 L 4296.320313 1453.808594 "/>
<path style=" stroke:none;fill-rule:nonzero;fill:rgb(13.699341%,12.199402%,12.5%);fill-opacity:1;" d="M 4385.878906 1453.808594 L 4360.011719 1453.808594 L 4360.011719 1270.730469 L 4385.878906 1270.730469 L 4385.878906 1289.628906 C 4401.121094 1277.371094 4415.398438 1265.429688 4436.300781 1265.429688 C 4462.148438 1265.429688 4483.070313 1279.691406 4483.070313 1327.449219 L 4483.070313 1453.808594 L 4457.199219 1453.808594 L 4457.199219 1334.078125 C 4457.199219 1314.839844 4460.519531 1286.648438 4432.988281 1286.648438 C 4417.050781 1286.648438 4396.171875 1302.238281 4385.878906 1314.511719 L 4385.878906 1453.808594 "/>
<path style=" stroke:none;fill-rule:nonzero;fill:rgb(13.699341%,12.199402%,12.5%);fill-opacity:1;" d="M 4638.941406 1362.269531 C 4638.941406 1331.101563 4631.300781 1287.320313 4591.511719 1287.320313 C 4551.710938 1287.320313 4544.078125 1331.101563 4544.078125 1362.269531 C 4544.078125 1393.441406 4551.710938 1437.230469 4591.511719 1437.230469 C 4631.300781 1437.230469 4638.941406 1393.441406 4638.941406 1362.269531 Z M 4518.210938 1362.269531 C 4518.210938 1293.609375 4550.71875 1265.429688 4591.511719 1265.429688 C 4632.300781 1265.429688 4664.808594 1293.609375 4664.808594 1362.269531 C 4664.808594 1430.921875 4632.300781 1459.109375 4591.511719 1459.109375 C 4550.71875 1459.109375 4518.210938 1430.921875 4518.210938 1362.269531 "/>
<path style=" stroke:none;fill-rule:nonzero;fill:rgb(13.699341%,12.199402%,12.5%);fill-opacity:1;" d="M 4802.101563 1311.53125 C 4791.828125 1296.269531 4779.539063 1287.320313 4760.320313 1287.320313 C 4743.410156 1287.320313 4727.480469 1295.941406 4727.480469 1314.511719 C 4727.480469 1359.28125 4824 1339.71875 4824 1401.410156 C 4824 1437.230469 4798.449219 1459.109375 4763.960938 1459.109375 C 4734.449219 1459.109375 4710.578125 1446.179688 4695.660156 1420.640625 L 4716.230469 1407.710938 C 4726.171875 1426.609375 4742.101563 1437.230469 4763.960938 1437.230469 C 4782.871094 1437.230469 4799.789063 1426.941406 4799.789063 1406.050781 C 4799.789063 1359.949219 4703.269531 1381.828125 4703.269531 1316.160156 C 4703.269531 1284.671875 4729.140625 1265.429688 4759.320313 1265.429688 C 4784.871094 1265.429688 4806.101563 1276.039063 4820.359375 1297.269531 L 4802.101563 1311.53125 "/>
<path style=" stroke:none;fill-rule:nonzero;fill:rgb(13.699341%,12.199402%,12.5%);fill-opacity:1;" d="M 2570.46875 2148.46875 L 2588.070313 2148.46875 C 2615.808594 2148.46875 2649.488281 2147.410156 2649.488281 2111.140625 C 2649.488281 2072.800781 2613.210938 2073.839844 2585.238281 2073.839844 L 2570.46875 2073.839844 Z M 2604.671875 2055.699219 C 2654.921875 2055.699219 2670.75 2087.578125 2670.75 2110.890625 C 2670.75 2135.511719 2656.210938 2166.601563 2601.289063 2166.601563 L 2570.46875 2166.601563 L 2570.46875 2257.300781 L 2549.210938 2257.300781 L 2549.210938 2055.699219 L 2604.671875 2055.699219 "/>
<path style=" stroke:none;fill-rule:nonzero;fill:rgb(13.699341%,12.199402%,12.5%);fill-opacity:1;" d="M 2764.011719 2179.28125 C 2744.839844 2184.988281 2709.859375 2192.761719 2709.859375 2218.429688 C 2709.859375 2230.328125 2719.191406 2242.25 2731.351563 2242.25 C 2747.421875 2242.25 2762.210938 2231.101563 2772.039063 2218.929688 L 2772.039063 2176.96875 Z M 2774.109375 2257.300781 L 2772.039063 2239.160156 C 2760.378906 2250.53125 2747.421875 2261.421875 2730.589844 2261.421875 C 2708.558594 2261.421875 2690.949219 2243.039063 2690.949219 2220.488281 C 2690.949219 2179.558594 2733.941406 2170.738281 2765.558594 2162.199219 L 2772.039063 2160.371094 L 2772.039063 2152.359375 C 2772.039063 2136.019531 2760.910156 2127.210938 2744.839844 2127.210938 C 2729.03125 2127.210938 2718.160156 2137.578125 2709.859375 2149.769531 L 2695.601563 2139.121094 C 2707.53125 2122.03125 2723.078125 2110.109375 2744.839844 2110.109375 C 2764.269531 2110.109375 2792.238281 2122.03125 2792.238281 2154.660156 L 2792.238281 2225.671875 C 2792.5 2236.28125 2792.011719 2247.171875 2796.128906 2257.300781 L 2774.109375 2257.300781 "/>
<path style=" stroke:none;fill-rule:nonzero;fill:rgb(13.699341%,12.199402%,12.5%);fill-opacity:1;" d="M 2844.601563 2145.089844 L 2845.121094 2145.089844 C 2853.140625 2127.980469 2863.5 2112.199219 2884.761719 2112.199219 L 2892.53125 2112.199219 L 2892.53125 2130.578125 C 2866.089844 2126.949219 2852.371094 2155.460938 2844.601563 2176.179688 L 2844.601563 2257.300781 L 2824.390625 2257.300781 L 2824.390625 2114.261719 L 2844.601563 2114.261719 L 2844.601563 2145.089844 "/>
<path style=" stroke:none;fill-rule:nonzero;fill:rgb(13.699341%,12.199402%,12.5%);fill-opacity:1;" d="M 2983.988281 2179.28125 C 2964.820313 2184.988281 2929.839844 2192.761719 2929.839844 2218.429688 C 2929.839844 2230.328125 2939.171875 2242.25 2951.359375 2242.25 C 2967.410156 2242.25 2982.171875 2231.101563 2992.019531 2218.929688 L 2992.019531 2176.96875 Z M 2994.109375 2257.300781 L 2992.019531 2239.160156 C 2980.359375 2250.53125 2967.410156 2261.421875 2950.570313 2261.421875 C 2928.539063 2261.421875 2910.910156 2243.039063 2910.910156 2220.488281 C 2910.910156 2179.558594 2953.949219 2170.738281 2985.550781 2162.199219 L 2992.019531 2160.371094 L 2992.019531 2152.359375 C 2992.019531 2136.019531 2980.871094 2127.210938 2964.820313 2127.210938 C 2949.011719 2127.210938 2938.121094 2137.578125 2929.839844 2149.769531 L 2915.589844 2139.121094 C 2927.511719 2122.03125 2943.050781 2110.109375 2964.820313 2110.109375 C 2984.25 2110.109375 3012.25 2122.03125 3012.25 2154.660156 L 3012.25 2225.671875 C 3012.488281 2236.28125 3011.960938 2247.171875 3016.128906 2257.300781 L 2994.109375 2257.300781 "/>
<path style=" stroke:none;fill-rule:nonzero;fill:rgb(13.699341%,12.199402%,12.5%);fill-opacity:1;" d="M 3139.210938 2257.300781 L 3118.988281 2257.300781 L 3118.988281 2055.699219 L 3139.210938 2055.699219 L 3139.210938 2257.300781 "/>
<path style=" stroke:none;fill-rule:nonzero;fill:rgb(13.699341%,12.199402%,12.5%);fill-opacity:1;" d="M 3240.511719 2179.28125 C 3221.339844 2184.988281 3186.359375 2192.761719 3186.359375 2218.429688 C 3186.359375 2230.328125 3195.691406 2242.25 3207.878906 2242.25 C 3223.929688 2242.25 3238.691406 2231.101563 3248.539063 2218.929688 L 3248.539063 2176.96875 Z M 3250.628906 2257.300781 L 3248.539063 2239.160156 C 3236.890625 2250.53125 3223.929688 2261.421875 3207.089844 2261.421875 C 3185.070313 2261.421875 3167.429688 2243.039063 3167.429688 2220.488281 C 3167.429688 2179.558594 3210.460938 2170.738281 3242.058594 2162.199219 L 3248.539063 2160.371094 L 3248.539063 2152.359375 C 3248.539063 2136.019531 3237.390625 2127.210938 3221.339844 2127.210938 C 3205.53125 2127.210938 3194.640625 2137.578125 3186.359375 2149.769531 L 3172.109375 2139.121094 C 3184.03125 2122.03125 3199.578125 2110.109375 3221.339844 2110.109375 C 3240.769531 2110.109375 3268.769531 2122.03125 3268.769531 2154.660156 L 3268.769531 2225.671875 C 3269.011719 2236.28125 3268.488281 2247.171875 3272.648438 2257.300781 L 3250.628906 2257.300781 "/>
<path style=" stroke:none;fill-rule:nonzero;fill:rgb(13.699341%,12.199402%,12.5%);fill-opacity:1;" d="M 3484.839844 2073.839844 L 3396.738281 2073.839844 L 3396.738281 2142.5 L 3459.71875 2142.5 L 3459.71875 2160.628906 L 3396.738281 2160.628906 L 3396.738281 2239.160156 L 3490.808594 2239.160156 L 3490.808594 2257.300781 L 3375.511719 2257.300781 L 3375.511719 2055.699219 L 3484.839844 2055.699219 L 3484.839844 2073.839844 "/>
<path style=" stroke:none;fill-rule:nonzero;fill:rgb(13.699341%,12.199402%,12.5%);fill-opacity:1;" d="M 3604.820313 2150.78125 C 3598.609375 2138.351563 3586.949219 2127.738281 3571.398438 2127.738281 C 3543.160156 2127.738281 3537.191406 2166.601563 3537.191406 2188.109375 C 3537.191406 2230.089844 3557.148438 2243.808594 3571.128906 2243.808594 C 3585.390625 2243.808594 3599.128906 2229.300781 3604.820313 2217.128906 Z M 3604.820313 2055.699219 L 3625.039063 2055.699219 L 3625.039063 2257.300781 L 3604.820313 2257.300781 L 3604.820313 2240.960938 C 3595.25 2252.878906 3584.089844 2261.421875 3568.28125 2261.421875 C 3548.851563 2261.421875 3515.960938 2243.550781 3515.960938 2188.628906 C 3515.960938 2132.398438 3544.460938 2110.109375 3569.070313 2110.109375 C 3582.800781 2110.109375 3595.488281 2119.179688 3604.820313 2129.03125 L 3604.820313 2055.699219 "/>
<path style=" stroke:none;fill-rule:nonzero;fill:rgb(13.699341%,12.199402%,12.5%);fill-opacity:1;" d="M 3732.578125 2114.261719 L 3752.78125 2114.261719 L 3752.78125 2257.300781 L 3732.578125 2257.300781 L 3732.578125 2242.519531 C 3720.628906 2252.121094 3709.5 2261.421875 3693.179688 2261.421875 C 3672.980469 2261.421875 3656.640625 2250.289063 3656.640625 2212.96875 L 3656.640625 2114.261719 L 3676.871094 2114.261719 L 3676.871094 2207.78125 C 3676.871094 2222.820313 3679.449219 2244.851563 3695.769531 2244.851563 C 3708.199219 2244.851563 3724.519531 2232.679688 3732.578125 2223.078125 L 3732.578125 2114.261719 "/>
<path style=" stroke:none;fill-rule:nonzero;fill:rgb(13.699341%,12.199402%,12.5%);fill-opacity:1;" d="M 3866.261719 2154.148438 C 3861.328125 2140.941406 3853.550781 2126.691406 3837.488281 2127.210938 C 3806.398438 2127.210938 3800.429688 2161.421875 3800.429688 2185.75 C 3800.429688 2210.128906 3806.398438 2244.339844 3837.488281 2244.339844 C 3854.851563 2243.550781 3864.699219 2229.558594 3870.921875 2215.550781 L 3887.238281 2222.820313 C 3878.949219 2244.589844 3860.550781 2261.421875 3837.488281 2261.421875 C 3805.621094 2261.421875 3780.230469 2239.398438 3780.230469 2185.75 C 3780.230469 2132.128906 3805.621094 2110.109375 3837.488281 2110.109375 C 3861.078125 2110.109375 3875.578125 2124.871094 3883.351563 2146.378906 L 3866.261719 2154.148438 "/>
<path style=" stroke:none;fill-rule:nonzero;fill:rgb(13.699341%,12.199402%,12.5%);fill-opacity:1;" d="M 3984.398438 2179.28125 C 3965.25 2184.988281 3930.269531 2192.761719 3930.269531 2218.429688 C 3930.269531 2230.328125 3939.578125 2242.25 3951.761719 2242.25 C 3967.839844 2242.25 3982.601563 2231.101563 3992.460938 2218.929688 L 3992.460938 2176.96875 Z M 3994.519531 2257.300781 L 3992.460938 2239.160156 C 3980.789063 2250.53125 3967.839844 2261.421875 3951 2261.421875 C 3928.96875 2261.421875 3911.339844 2243.039063 3911.339844 2220.488281 C 3911.339844 2179.558594 3954.359375 2170.738281 3985.980469 2162.199219 L 3992.460938 2160.371094 L 3992.460938 2152.359375 C 3992.460938 2136.019531 3981.300781 2127.210938 3965.25 2127.210938 C 3949.421875 2127.210938 3938.550781 2137.578125 3930.269531 2149.769531 L 3916.019531 2139.121094 C 3927.921875 2122.03125 3943.46875 2110.109375 3965.25 2110.109375 C 3984.679688 2110.109375 4012.660156 2122.03125 4012.660156 2154.660156 L 4012.660156 2225.671875 C 4012.898438 2236.28125 4012.390625 2247.171875 4016.550781 2257.300781 L 3994.519531 2257.300781 "/>
<path style=" stroke:none;fill-rule:nonzero;fill:rgb(13.699341%,12.199402%,12.5%);fill-opacity:1;" d="M 4126.671875 2154.148438 C 4121.730469 2140.941406 4113.949219 2126.691406 4097.898438 2127.210938 C 4066.808594 2127.210938 4060.839844 2161.421875 4060.839844 2185.75 C 4060.839844 2210.128906 4066.808594 2244.339844 4097.898438 2244.339844 C 4115.25 2243.550781 4125.109375 2229.558594 4131.320313 2215.550781 L 4147.640625 2222.820313 C 4139.359375 2244.589844 4120.960938 2261.421875 4097.898438 2261.421875 C 4066.019531 2261.421875 4040.640625 2239.398438 4040.640625 2185.75 C 4040.640625 2132.128906 4066.019531 2110.109375 4097.898438 2110.109375 C 4121.480469 2110.109375 4135.980469 2124.871094 4143.75 2146.378906 L 4126.671875 2154.148438 "/>
<path style=" stroke:none;fill-rule:nonzero;fill:rgb(13.699341%,12.199402%,12.5%);fill-opacity:1;" d="M 4195.859375 2257.300781 L 4175.640625 2257.300781 L 4175.640625 2114.261719 L 4195.859375 2114.261719 Z M 4195.859375 2077.980469 L 4175.640625 2077.980469 L 4175.640625 2055.699219 L 4195.859375 2055.699219 L 4195.859375 2077.980469 "/>
<path style=" stroke:none;fill-rule:nonzero;fill:rgb(13.699341%,12.199402%,12.5%);fill-opacity:1;" d="M 4288.089844 2055.699219 L 4311.941406 2055.699219 L 4284.460938 2093.011719 L 4269.949219 2093.011719 Z M 4318.148438 2185.75 C 4318.148438 2161.421875 4312.171875 2127.210938 4281.078125 2127.210938 C 4249.988281 2127.210938 4244.039063 2161.421875 4244.039063 2185.75 C 4244.039063 2210.128906 4249.988281 2244.339844 4281.078125 2244.339844 C 4312.171875 2244.339844 4318.148438 2210.128906 4318.148438 2185.75 Z M 4223.839844 2185.75 C 4223.839844 2132.128906 4249.21875 2110.109375 4281.078125 2110.109375 C 4312.96875 2110.109375 4338.371094 2132.128906 4338.371094 2185.75 C 4338.371094 2239.398438 4312.96875 2261.421875 4281.078125 2261.421875 C 4249.21875 2261.421875 4223.839844 2239.398438 4223.839844 2185.75 "/>
<path style=" stroke:none;fill-rule:nonzero;fill:rgb(13.699341%,12.199402%,12.5%);fill-opacity:1;" d="M 4386.019531 2257.300781 L 4365.820313 2257.300781 L 4365.820313 2114.261719 L 4386.019531 2114.261719 L 4386.019531 2129.03125 C 4397.941406 2119.441406 4409.101563 2110.109375 4425.421875 2110.109375 C 4445.621094 2110.109375 4461.949219 2121.261719 4461.949219 2158.550781 L 4461.949219 2257.300781 L 4441.730469 2257.300781 L 4441.730469 2163.730469 C 4441.730469 2148.71875 4444.328125 2126.691406 4422.820313 2126.691406 C 4410.390625 2126.691406 4394.050781 2138.871094 4386.019531 2148.46875 L 4386.019531 2257.300781 "/>
<path style=" stroke:none;fill-rule:nonzero;fill:rgb(13.699341%,12.199402%,12.5%);fill-opacity:1;" d="M 4527.761719 2255.210938 L 4510.398438 2297.179688 L 4497.441406 2297.179688 L 4510.398438 2257.300781 L 4501.609375 2257.300781 L 4501.609375 2226.96875 L 4527.761719 2226.96875 L 4527.761719 2255.210938 "/>
<path style=" stroke:none;fill-rule:nonzero;fill:rgb(13.699341%,12.199402%,12.5%);fill-opacity:1;" d="M 2569.421875 2547.5 L 2549.210938 2547.5 L 2549.210938 2345.898438 L 2569.421875 2345.898438 L 2569.421875 2547.5 "/>
<path style=" stroke:none;fill-rule:nonzero;fill:rgb(13.699341%,12.199402%,12.5%);fill-opacity:1;" d="M 2670.730469 2469.480469 C 2651.550781 2475.191406 2616.578125 2482.960938 2616.578125 2508.628906 C 2616.578125 2520.53125 2625.910156 2532.460938 2638.070313 2532.460938 C 2654.148438 2532.460938 2668.921875 2521.300781 2678.769531 2509.140625 L 2678.769531 2467.179688 Z M 2680.828125 2547.5 L 2678.769531 2529.359375 C 2667.101563 2540.738281 2654.148438 2551.628906 2637.300781 2551.628906 C 2615.28125 2551.628906 2597.671875 2533.25 2597.671875 2510.699219 C 2597.671875 2469.769531 2640.671875 2460.941406 2672.28125 2452.398438 L 2678.769531 2450.570313 L 2678.769531 2442.558594 C 2678.769531 2426.21875 2667.628906 2417.421875 2651.550781 2417.421875 C 2635.75 2417.421875 2624.878906 2427.78125 2616.578125 2439.96875 L 2602.328125 2429.320313 C 2614.25 2412.238281 2629.800781 2400.308594 2651.550781 2400.308594 C 2670.988281 2400.308594 2698.96875 2412.238281 2698.96875 2444.871094 L 2698.96875 2515.878906 C 2699.230469 2526.488281 2698.71875 2537.378906 2702.859375 2547.5 L 2680.828125 2547.5 "/>
<path style=" stroke:none;fill-rule:nonzero;fill:rgb(13.699341%,12.199402%,12.5%);fill-opacity:1;" d="M 2917.921875 2407.050781 C 2912.488281 2383.738281 2902.128906 2359.121094 2874.390625 2359.121094 C 2846.421875 2359.121094 2822.570313 2385.558594 2822.570313 2446.691406 C 2822.570313 2507.839844 2846.421875 2534.261719 2874.390625 2534.261719 C 2900.828125 2534.261719 2913.019531 2510.179688 2917.921875 2486.328125 L 2937.628906 2491.511719 C 2931.929688 2524.691406 2910.671875 2551.628906 2874.390625 2551.628906 C 2832.410156 2551.628906 2801.308594 2513.03125 2801.308594 2446.691406 C 2801.308594 2380.371094 2832.410156 2341.75 2874.390625 2341.75 C 2910.140625 2341.75 2930.871094 2368.191406 2936.839844 2402.390625 L 2917.921875 2407.050781 "/>
<path style=" stroke:none;fill-rule:nonzero;fill:rgb(13.699341%,12.199402%,12.5%);fill-opacity:1;" d="M 2987.101563 2547.5 L 2966.898438 2547.5 L 2966.898438 2404.460938 L 2987.101563 2404.460938 Z M 2987.101563 2368.191406 L 2966.898438 2368.191406 L 2966.898438 2345.898438 L 2987.101563 2345.898438 L 2987.101563 2368.191406 "/>
<path style=" stroke:none;fill-rule:nonzero;fill:rgb(13.699341%,12.199402%,12.5%);fill-opacity:1;" d="M 3101.351563 2462.238281 C 3101.878906 2443.859375 3092.050781 2417.421875 3070.789063 2417.421875 C 3048 2417.421875 3037.101563 2442.039063 3036.859375 2462.238281 Z M 3036.339844 2479.339844 C 3036.339844 2520.289063 3053.710938 2534.539063 3074.429688 2534.539063 C 3089.449219 2534.539063 3102.140625 2522.351563 3109.410156 2509.929688 L 3123.910156 2519.5 C 3116.140625 2537.910156 3096.96875 2551.628906 3072.351563 2551.628906 C 3040.46875 2551.628906 3015.078125 2529.609375 3015.078125 2475.960938 C 3015.078125 2422.339844 3040.46875 2400.308594 3072.351563 2400.308594 C 3113.539063 2400.308594 3125.46875 2444.359375 3122.609375 2479.339844 L 3036.339844 2479.339844 "/>
<path style=" stroke:none;fill-rule:nonzero;fill:rgb(13.699341%,12.199402%,12.5%);fill-opacity:1;" d="M 3171.601563 2547.5 L 3151.378906 2547.5 L 3151.378906 2404.460938 L 3171.601563 2404.460938 L 3171.601563 2419.238281 C 3183.5 2409.648438 3194.640625 2400.308594 3210.980469 2400.308594 C 3231.199219 2400.308594 3247.519531 2411.46875 3247.519531 2448.761719 L 3247.519531 2547.5 L 3227.308594 2547.5 L 3227.308594 2453.941406 C 3227.308594 2438.910156 3229.898438 2416.890625 3208.378906 2416.890625 C 3195.929688 2416.890625 3179.621094 2429.078125 3171.601563 2438.671875 L 3171.601563 2547.5 "/>
<path style=" stroke:none;fill-rule:nonzero;fill:rgb(13.699341%,12.199402%,12.5%);fill-opacity:1;" d="M 3360.988281 2444.359375 C 3356.058594 2431.140625 3348.28125 2416.890625 3332.230469 2417.421875 C 3301.140625 2417.421875 3295.160156 2451.628906 3295.160156 2475.960938 C 3295.160156 2500.328125 3301.140625 2534.539063 3332.230469 2534.539063 C 3349.578125 2533.75 3359.429688 2519.769531 3365.648438 2505.761719 L 3381.96875 2513.03125 C 3373.691406 2534.78125 3355.28125 2551.628906 3332.230469 2551.628906 C 3300.351563 2551.628906 3274.960938 2529.609375 3274.960938 2475.960938 C 3274.960938 2422.339844 3300.351563 2400.308594 3332.230469 2400.308594 C 3355.808594 2400.308594 3370.308594 2415.070313 3378.078125 2436.589844 L 3360.988281 2444.359375 "/>
<path style=" stroke:none;fill-rule:nonzero;fill:rgb(13.699341%,12.199402%,12.5%);fill-opacity:1;" d="M 3430.179688 2547.5 L 3409.960938 2547.5 L 3409.960938 2404.460938 L 3430.179688 2404.460938 Z M 3430.179688 2368.191406 L 3409.960938 2368.191406 L 3409.960938 2345.898438 L 3430.179688 2345.898438 L 3430.179688 2368.191406 "/>
<path style=" stroke:none;fill-rule:nonzero;fill:rgb(13.699341%,12.199402%,12.5%);fill-opacity:1;" d="M 3531.480469 2469.480469 C 3512.308594 2475.191406 3477.328125 2482.960938 3477.328125 2508.628906 C 3477.328125 2520.53125 3486.660156 2532.460938 3498.851563 2532.460938 C 3514.910156 2532.460938 3529.660156 2521.300781 3539.519531 2509.140625 L 3539.519531 2467.179688 Z M 3541.601563 2547.5 L 3539.519531 2529.359375 C 3527.859375 2540.738281 3514.910156 2551.628906 3498.058594 2551.628906 C 3476.03125 2551.628906 3458.410156 2533.25 3458.410156 2510.699219 C 3458.410156 2469.769531 3501.441406 2460.941406 3533.039063 2452.398438 L 3539.519531 2450.570313 L 3539.519531 2442.558594 C 3539.519531 2426.21875 3528.371094 2417.421875 3512.308594 2417.421875 C 3496.5 2417.421875 3485.609375 2427.78125 3477.328125 2439.96875 L 3463.078125 2429.320313 C 3475 2412.238281 3490.550781 2400.308594 3512.308594 2400.308594 C 3531.738281 2400.308594 3559.738281 2412.238281 3559.738281 2444.871094 L 3559.738281 2515.878906 C 3559.988281 2526.488281 3559.460938 2537.378906 3563.628906 2547.5 L 3541.601563 2547.5 "/>
<g clip-path="url(#clip1)" clip-rule="nonzero">
<path style=" stroke:none;fill-rule:nonzero;fill:rgb(13.699341%,12.199402%,12.5%);fill-opacity:1;" d="M 2601.800781 2843.390625 C 2594.019531 2868.011719 2581.351563 2887.179688 2552.851563 2887.179688 C 2547.140625 2887.179688 2542.730469 2886.148438 2537.300781 2884.339844 L 2540.398438 2867.21875 C 2544.019531 2868.269531 2547.910156 2869.300781 2552.058594 2869.300781 C 2572.53125 2869.300781 2579.269531 2852.199219 2584.449219 2835.109375 L 2535.21875 2694.671875 L 2555.679688 2694.671875 L 2594.550781 2806.320313 L 2630.058594 2694.671875 L 2649.230469 2694.671875 L 2601.800781 2843.390625 "/>
</g>
<path style=" stroke:none;fill-rule:nonzero;fill:rgb(13.699341%,12.199402%,12.5%);fill-opacity:1;" d="M 2762.210938 2837.699219 L 2741.980469 2837.699219 L 2741.980469 2636.101563 L 2762.210938 2636.101563 L 2762.210938 2837.699219 "/>
<path style=" stroke:none;fill-rule:nonzero;fill:rgb(13.699341%,12.199402%,12.5%);fill-opacity:1;" d="M 2863.5 2759.691406 C 2844.328125 2765.398438 2809.351563 2773.171875 2809.351563 2798.839844 C 2809.351563 2810.738281 2818.691406 2822.660156 2830.871094 2822.660156 C 2846.921875 2822.660156 2861.679688 2811.511719 2871.539063 2799.339844 L 2871.539063 2757.378906 Z M 2873.621094 2837.699219 L 2871.539063 2819.558594 C 2859.878906 2830.941406 2846.921875 2841.828125 2830.078125 2841.828125 C 2808.058594 2841.828125 2790.421875 2823.449219 2790.421875 2800.898438 C 2790.421875 2759.96875 2833.460938 2751.148438 2865.058594 2742.601563 L 2871.539063 2740.78125 L 2871.539063 2732.769531 C 2871.539063 2716.429688 2860.378906 2707.621094 2844.328125 2707.621094 C 2828.519531 2707.621094 2817.628906 2717.980469 2809.351563 2730.171875 L 2795.101563 2719.53125 C 2807.019531 2702.441406 2822.570313 2690.519531 2844.328125 2690.519531 C 2863.769531 2690.519531 2891.761719 2702.441406 2891.761719 2735.070313 L 2891.761719 2806.078125 C 2892 2816.691406 2891.46875 2827.578125 2895.648438 2837.699219 L 2873.621094 2837.699219 "/>
<path style=" stroke:none;fill-rule:nonzero;fill:rgb(13.699341%,12.199402%,12.5%);fill-opacity:1;" d="M 3110.710938 2697.261719 C 3105.238281 2673.941406 3094.878906 2649.320313 3067.171875 2649.320313 C 3039.171875 2649.320313 3015.351563 2675.761719 3015.351563 2736.890625 C 3015.351563 2798.050781 3039.171875 2824.460938 3067.171875 2824.460938 C 3093.578125 2824.460938 3105.769531 2800.371094 3110.710938 2776.53125 L 3130.390625 2781.710938 C 3124.679688 2814.890625 3103.441406 2841.828125 3067.171875 2841.828125 C 3025.199219 2841.828125 2994.109375 2803.230469 2994.109375 2736.890625 C 2994.109375 2670.578125 3025.199219 2631.960938 3067.171875 2631.960938 C 3102.929688 2631.960938 3123.671875 2658.390625 3129.621094 2692.601563 L 3110.710938 2697.261719 "/>
<path style=" stroke:none;fill-rule:nonzero;fill:rgb(13.699341%,12.199402%,12.5%);fill-opacity:1;" d="M 3235.089844 2694.671875 L 3255.289063 2694.671875 L 3255.289063 2837.699219 L 3235.089844 2837.699219 L 3235.089844 2822.929688 C 3223.140625 2832.519531 3212.011719 2841.828125 3195.691406 2841.828125 C 3175.488281 2841.828125 3159.148438 2830.699219 3159.148438 2793.371094 L 3159.148438 2694.671875 L 3179.378906 2694.671875 L 3179.378906 2788.191406 C 3179.378906 2803.230469 3181.960938 2825.25 3198.28125 2825.25 C 3210.710938 2825.25 3227.019531 2813.089844 3235.089844 2803.488281 L 3235.089844 2694.671875 "/>
<path style=" stroke:none;fill-rule:nonzero;fill:rgb(13.699341%,12.199402%,12.5%);fill-opacity:1;" d="M 3307.109375 2837.699219 L 3286.890625 2837.699219 L 3286.890625 2636.101563 L 3307.109375 2636.101563 L 3307.109375 2837.699219 "/>
<path style=" stroke:none;fill-rule:nonzero;fill:rgb(13.699341%,12.199402%,12.5%);fill-opacity:1;" d="M 3367.230469 2694.671875 L 3399.621094 2694.671875 L 3399.621094 2711.75 L 3367.230469 2711.75 L 3367.230469 2801.667969 C 3367.230469 2815.679688 3366.941406 2824.75 3383.550781 2824.75 C 3389.261719 2824.75 3394.679688 2824.21875 3399.621094 2822.929688 L 3399.621094 2837.699219 C 3393.140625 2840.011719 3386.378906 2841.828125 3379.390625 2841.828125 C 3345.210938 2841.828125 3347.011719 2818.78125 3347.011719 2792.601563 L 3347.011719 2711.75 L 3325.25 2711.75 L 3325.25 2694.671875 L 3347.011719 2694.671875 L 3347.011719 2648.269531 L 3367.230469 2648.269531 L 3367.230469 2694.671875 "/>
<path style=" stroke:none;fill-rule:nonzero;fill:rgb(13.699341%,12.199402%,12.5%);fill-opacity:1;" d="M 3493.140625 2694.671875 L 3513.351563 2694.671875 L 3513.351563 2837.699219 L 3493.140625 2837.699219 L 3493.140625 2822.929688 C 3481.21875 2832.519531 3470.070313 2841.828125 3453.75 2841.828125 C 3433.550781 2841.828125 3417.230469 2830.699219 3417.230469 2793.371094 L 3417.230469 2694.671875 L 3437.429688 2694.671875 L 3437.429688 2788.191406 C 3437.429688 2803.230469 3440.019531 2825.25 3456.339844 2825.25 C 3468.769531 2825.25 3485.109375 2813.089844 3493.140625 2803.488281 L 3493.140625 2694.671875 "/>
<path style=" stroke:none;fill-rule:nonzero;fill:rgb(13.699341%,12.199402%,12.5%);fill-opacity:1;" d="M 3565.171875 2725.5 L 3565.691406 2725.5 C 3573.730469 2708.390625 3584.089844 2692.601563 3605.328125 2692.601563 L 3613.101563 2692.601563 L 3613.101563 2710.980469 C 3586.679688 2707.359375 3572.941406 2735.859375 3565.171875 2756.589844 L 3565.171875 2837.699219 L 3544.960938 2837.699219 L 3544.960938 2694.671875 L 3565.171875 2694.671875 L 3565.171875 2725.5 "/>
<path style=" stroke:none;fill-rule:nonzero;fill:rgb(13.699341%,12.199402%,12.5%);fill-opacity:1;" d="M 3704.558594 2759.691406 C 3685.410156 2765.398438 3650.429688 2773.171875 3650.429688 2798.839844 C 3650.429688 2810.738281 3659.75 2822.660156 3671.921875 2822.660156 C 3688 2822.660156 3702.761719 2811.511719 3712.621094 2799.339844 L 3712.621094 2757.378906 Z M 3714.679688 2837.699219 L 3712.621094 2819.558594 C 3700.960938 2830.941406 3688 2841.828125 3671.160156 2841.828125 C 3649.140625 2841.828125 3631.5 2823.449219 3631.5 2800.898438 C 3631.5 2759.96875 3674.519531 2751.148438 3706.140625 2742.601563 L 3712.621094 2740.78125 L 3712.621094 2732.769531 C 3712.621094 2716.429688 3701.460938 2707.621094 3685.410156 2707.621094 C 3669.578125 2707.621094 3658.710938 2717.980469 3650.429688 2730.171875 L 3636.179688 2719.53125 C 3648.078125 2702.441406 3663.628906 2690.519531 3685.410156 2690.519531 C 3704.839844 2690.519531 3732.820313 2702.441406 3732.820313 2735.070313 L 3732.820313 2806.078125 C 3733.058594 2816.691406 3732.558594 2827.578125 3736.710938 2837.699219 L 3714.679688 2837.699219 "/>
</g>
</svg>
